PathFileType  4	(X/Y/Z) C:\Users\antoi\Documents\MyRepositories\mobilecap\ResultsAnalysis
DataRate	CameraRate	NumFrames	NumMarkers	Units	OrigDataRate	OrigDataStartFrame	OrigNumFrames
100.0	100.0	6	51	mm	100.0	214	284
Frame#	Time	r_knee			r_shank_antsup			r_ankle			r_calc			r_5meta			r_toe			L_knee			L_shank_antsup			L_ankle			L_calc			L_5meta			L_toe			r_sh2			r_sh3			r_sh4			L_sh2			L_sh3			r_thigh1			r_thigh2			r_thigh3			r_thigh4			r_thigh5			L_thigh1			L_thigh2			L_thigh3			L_thigh4			r.ASIS			r.PSIS			L.ASIS			L.PSIS			C7			R_Shoulder			L_Shoulder			R_Sternum			L_Sternum			R_humerus			R_elbow_med			R_elbow_lat			R_forearm			R_wrist_radius			R_wrist_ulna			L_humerus			L_elbow_med			L_elbow_lat			L_forearm			L_wrist_radius			L_wrist_ulna			R_HJC			L_HJC			R_HJC_reg			L_HJC_reg			
		X1	Y1	Z1	X2	Y2	Z2	X3	Y3	Z3	X4	Y4	Z4	X5	Y5	Z5	X6	Y6	Z6	X7	Y7	Z7	X8	Y8	Z8	X9	Y9	Z9	X10	Y10	Z10	X11	Y11	Z11	X12	Y12	Z12	X13	Y13	Z13	X14	Y14	Z14	X15	Y15	Z15	X16	Y16	Z16	X17	Y17	Z17	X18	Y18	Z18	X19	Y19	Z19	X20	Y20	Z20	X21	Y21	Z21	X22	Y22	Z22	X23	Y23	Z23	X24	Y24	Z24	X25	Y25	Z25	X26	Y26	Z26	X27	Y27	Z27	X28	Y28	Z28	X29	Y29	Z29	X30	Y30	Z30	X31	Y31	Z31	X32	Y32	Z32	X33	Y33	Z33	X34	Y34	Z34	X35	Y35	Z35	X36	Y36	Z36	X37	Y37	Z37	X38	Y38	Z38	X39	Y39	Z39	X40	Y40	Z40	X41	Y41	Z41	X42	Y42	Z42	X43	Y43	Z43	X44	Y44	Z44	X45	Y45	Z45	X46	Y46	Z46	X47	Y47	Z47	X48	Y48	Z48	X49	Y49	Z49	X50	Y50	Z50	X51	Y51	Z51	

214	2.13000000	-61.88705	587.38669	-343.32645	-77.29159	441.56295	-326.21838	-294.04496	143.08814	-316.99518	-353.07275	130.65485	-381.72611	-192.69320	39.90920	-276.41049	-143.63770	59.37885	-321.93729	-95.19740	575.98563	-810.59717	-97.95130	373.85828	-819.90859	-289.14212	127.97321	-833.91644	-342.79479	89.45119	-764.53420	-184.09767	39.14176	-910.49011	-126.16573	64.54390	-864.36389	-127.80260	340.03825	-325.59894	-141.89020	471.88319	-302.29558	-196.51500	373.41483	-294.80483	-166.39405	414.07534	-860.82769	-217.33193	305.34259	-850.05917	-180.61052	853.57637	-347.50517	-108.11041	765.57007	-334.18760	-145.05711	708.07801	-329.84283	-262.87248	781.43814	-383.61568	-190.00414	689.73704	-358.19200	-160.08997	866.96236	-777.37747	-98.11751	748.05066	-793.83937	-260.29016	820.03588	-786.98222	-194.78574	702.34257	-815.33825	-220.16352	1052.50337	-425.25270	-392.06334	1118.60415	-518.81336	-215.57237	1054.57691	-697.85021	-387.68721	1124.32209	-610.10141	-165.16208	1563.81323	-538.75459	-67.04897	1572.47377	-427.67433	-94.41175	1592.84138	-648.04367	-29.52246	1474.53605	-525.56981	-34.82847	1489.66611	-579.11029	107.98375	1601.08603	-312.43963	243.85861	1537.60609	-247.36023	195.60097	1598.99861	-200.91460	209.26624	1733.34033	-365.28274	215.92510	1785.01947	-426.97307	246.00778	1796.88769	-414.09633	110.37218	1632.18469	-757.84776	201.54994	1564.77125	-844.00716	172.70866	1644.74222	-859.81664	216.78956	1744.62954	-687.16970	223.17997	1763.84465	-621.80042	244.79354	1783.19776	-640.63574	-313.19429	974.27504	-466.71825	-313.27087	981.36318	-664.06737	-303.71796	977.62956	-472.84605	-295.11778	988.86570	-652.23360	
215	2.14000000	-71.29329	597.72552	-336.87957	-84.16856	451.35640	-319.86378	-292.66318	145.41556	-313.65516	-350.45536	136.01297	-378.55011	-192.09930	39.27794	-275.88172	-142.83718	58.83685	-321.14136	-104.98848	585.73434	-811.17615	-104.21749	382.40748	-819.48730	-288.07000	131.13694	-834.96506	-341.14959	94.07914	-765.01228	-183.69889	39.50072	-910.52587	-125.28496	64.40419	-864.69719	-132.05351	348.14606	-319.77278	-150.10621	479.45783	-296.82473	-201.67449	379.48319	-289.78563	-173.42437	420.55005	-861.35410	-221.04012	310.30779	-850.75723	-178.84188	870.22578	-344.51132	-110.42667	779.19578	-329.69302	-149.86151	723.44361	-326.13403	-263.27836	801.59597	-382.36565	-194.91978	706.95573	-355.25715	-155.80062	881.14297	-777.24702	-100.54681	759.07789	-793.42652	-258.28337	839.51275	-786.38601	-199.42984	718.24174	-814.15331	-210.48777	1077.59008	-424.18080	-382.35747	1140.60061	-519.76284	-203.91684	1079.20491	-697.27311	-377.51145	1146.25752	-611.00158	-168.58782	1592.41556	-536.95538	-70.87884	1605.95821	-426.88949	-99.38319	1624.61008	-644.94498	-29.64240	1505.42073	-523.12395	-36.22711	1521.66242	-579.37750	100.20778	1636.94032	-303.78347	232.07792	1576.81505	-227.94540	180.31565	1638.17820	-185.73856	199.17883	1768.34724	-352.55856	206.80969	1817.93721	-417.30350	236.39119	1830.98133	-402.37196	101.34067	1667.74698	-764.69385	188.39735	1603.08576	-857.33270	158.45936	1683.86674	-869.04705	204.78019	1775.74245	-693.10577	212.39842	1792.34944	-626.93595	233.52420	1812.78180	-645.54169	-301.85264	997.76495	-466.57952	-300.44705	1004.40817	-663.93953	-292.31782	1001.01257	-472.27299	-282.77426	1012.15332	-651.97148	
216	2.15000000	-82.31031	608.97732	-330.30485	-92.63024	461.96498	-313.84043	-291.22101	148.32535	-309.19994	-347.40409	141.90006	-374.64685	-191.49193	38.48463	-275.11500	-142.02017	58.30367	-320.02743	-116.88373	597.31485	-811.33240	-111.97530	392.94633	-819.12990	-286.55681	135.36990	-836.19853	-338.84288	100.28056	-765.48363	-183.24228	39.97979	-910.58709	-124.27442	64.02893	-865.01511	-137.30939	356.93191	-313.60110	-159.74694	487.78570	-291.37822	-207.94214	386.25904	-284.25789	-182.12020	428.58146	-861.65773	-225.67677	316.77291	-851.47677	-177.66706	887.69140	-341.55531	-113.58232	793.67526	-325.16946	-155.63448	739.86469	-322.62914	-264.14547	822.92292	-381.50959	-200.83438	725.40621	-352.56725	-152.10873	896.76998	-776.89939	-104.31751	771.67598	-792.93914	-256.79385	860.91756	-785.61696	-205.21919	736.27902	-813.14947	-199.79595	1103.95209	-423.11334	-371.83334	1163.43490	-520.54930	-191.44849	1105.68468	-696.74986	-366.51952	1169.18021	-611.82803	-172.36064	1622.00008	-534.98672	-75.05277	1639.58971	-426.05705	-104.78433	1656.84453	-642.56343	-29.83213	1536.40004	-520.57778	-37.78159	1553.55308	-579.57284	91.07998	1672.15794	-293.68456	217.34686	1614.52123	-207.22351	162.67004	1675.75763	-169.55356	188.42620	1801.49733	-338.71667	197.24956	1848.68215	-407.14488	226.34772	1862.96434	-389.43628	91.06613	1702.41761	-772.86850	172.47067	1639.16519	-872.68278	141.89273	1720.46932	-879.80112	192.90211	1804.06899	-701.21573	202.05922	1817.45425	-634.73676	222.66688	1838.86051	-653.00482	-289.18921	1022.31787	-466.58270	-286.41363	1028.90020	-663.92958	-279.70396	1025.55098	-471.81538	-269.22348	1036.88304	-651.84302	
217	2.16000000	-94.98766	621.18689	-324.24730	-103.08995	473.55416	-308.30054	-289.36775	151.50225	-303.73320	-343.79342	148.45419	-369.89497	-190.83051	37.68471	-274.05052	-141.11563	57.79476	-318.45292	-131.52112	610.78890	-810.97681	-121.47134	406.14814	-819.42742	-284.33543	140.99227	-837.66372	-335.41833	108.89658	-766.12159	-182.72000	40.57104	-910.67278	-123.06336	63.54141	-865.70630	-143.62100	366.81781	-307.12272	-171.21462	497.12594	-286.16035	-215.44604	393.96391	-278.45331	-192.97452	438.65132	-861.63416	-231.55579	325.20530	-852.27901	-177.16668	906.21932	-338.55452	-117.69910	808.87159	-321.08302	-162.43343	757.32396	-319.51467	-265.36004	845.47011	-380.98917	-207.74792	745.10144	-350.34772	-149.19254	913.74106	-776.33924	-109.66157	785.88841	-792.47058	-255.83494	884.32107	-784.66628	-212.22675	756.66398	-812.25781	-187.94814	1131.92204	-422.04900	-360.41974	1186.96775	-521.13477	-178.22281	1133.87629	-696.00135	-354.60608	1192.91275	-612.31461	-176.28479	1652.22963	-533.15641	-79.53315	1673.02703	-425.53067	-110.35518	1689.41008	-640.59733	-30.09095	1567.34316	-517.97502	-39.46010	1585.18039	-579.66764	80.51160	1706.63775	-281.95230	199.59619	1650.40096	-185.30965	142.49948	1712.10633	-152.50346	176.99422	1832.50331	-324.38106	188.42722	1876.81282	-395.01386	216.30452	1892.47549	-375.02185	80.23140	1735.87237	-782.43040	154.18291	1672.58026	-889.32299	123.57505	1754.09607	-891.82494	181.27194	1829.25001	-711.63865	192.13584	1838.90697	-645.24855	212.18789	1861.17072	-662.89333	-274.94223	1048.07111	-466.39522	-271.02740	1054.66919	-663.72248	-265.63386	1051.28533	-471.44070	-254.14391	1063.03414	-651.61878	
218	2.17000000	-109.40581	634.63735	-319.64353	-115.44992	486.64396	-303.42278	-286.47899	154.84101	-297.49688	-339.21663	156.27544	-363.98232	-189.90326	37.19391	-272.69446	-139.92218	57.35261	-316.69146	-149.21487	626.32768	-810.15966	-132.54434	422.55307	-820.51924	-281.02879	148.57404	-839.36628	-330.04151	121.02131	-767.08613	-182.03222	41.62466	-910.96203	-121.37459	62.98796	-866.80208	-150.91611	378.33702	-300.69431	-184.60361	507.56391	-281.63588	-224.08015	402.67195	-272.75188	-205.79728	451.35263	-861.76524	-238.44167	335.96671	-853.28088	-176.96820	925.62751	-335.94537	-122.96132	825.14816	-317.84614	-170.40537	775.98748	-317.00778	-267.02444	869.43813	-380.47958	-215.67753	766.27994	-348.74341	-147.10349	931.82665	-775.45802	-116.49494	801.46999	-791.70316	-255.44832	909.56139	-783.25216	-220.59993	779.34445	-810.96522	-174.89995	1161.38445	-421.00446	-348.02386	1211.07577	-521.31709	-164.23848	1163.12241	-695.08587	-341.81727	1217.15339	-612.38547	-180.34411	1682.77690	-531.88990	-84.59930	1706.33284	-424.69235	-115.83369	1721.96438	-638.87990	-30.41854	1598.12016	-515.36158	-41.22955	1616.38670	-579.63308	68.26003	1740.18510	-269.26823	179.05522	1684.16496	-162.29643	119.88070	1747.06900	-134.99907	165.26521	1861.05156	-309.47710	181.10952	1902.26352	-380.52082	207.01293	1919.26431	-359.15762	69.16918	1767.77134	-793.49778	133.86150	1702.71180	-906.50103	104.48140	1784.81191	-904.84883	169.89714	1851.08195	-723.90829	182.59737	1856.84012	-658.03754	202.20062	1879.71502	-674.97312	-259.11768	1074.92941	-465.76180	-254.45751	1081.25740	-663.08198	-250.03635	1078.12158	-470.88111	-237.75425	1090.14824	-651.09733	
219	2.18000000	-126.50013	649.67037	-317.16325	-129.61231	501.68270	-299.66108	-281.79732	159.13169	-289.99836	-333.04946	166.34053	-356.36466	-188.53063	37.21889	-271.25666	-138.15514	57.30589	-314.70703	-170.36955	644.33684	-808.45562	-145.02835	442.52361	-821.72708	-275.57253	159.06584	-841.71659	-321.62453	137.60209	-768.62746	-180.73217	43.61534	-911.44447	-118.80197	62.65893	-868.09852	-159.10163	391.86715	-294.67189	-199.80519	519.39848	-278.34969	-233.62329	412.69514	-267.43088	-220.12885	467.02555	-862.15205	-245.63191	349.49399	-854.34229	-177.02897	945.76806	-334.33797	-129.77567	843.16177	-315.62749	-179.85334	796.22105	-315.20215	-269.39994	895.05283	-380.32570	-225.01960	789.24517	-347.83122	-145.61647	950.86761	-774.06406	-124.34614	818.34004	-790.52682	-255.39343	936.42349	-781.16985	-230.14776	804.01450	-808.78738	-160.75461	1191.79443	-419.90533	-334.53843	1235.51024	-520.85879	-149.41627	1192.99185	-693.91912	-328.22144	1241.56870	-612.02116	-184.70724	1713.14047	-531.14684	-90.48374	1739.20882	-423.10140	-121.26226	1753.93079	-637.60206	-30.81324	1628.60234	-512.78502	-43.05649	1647.01503	-579.43997	53.99179	1772.55318	-256.88719	155.74436	1715.87435	-138.94209	95.10625	1780.00992	-118.11939	153.77992	1887.15418	-293.51854	175.25822	1925.21484	-364.30769	199.18132	1943.29603	-341.94564	57.11169	1797.43661	-805.90555	111.43019	1729.09405	-923.49108	84.88962	1812.44714	-918.30352	158.69803	1869.60466	-737.61251	173.34228	1871.85462	-672.69785	193.08778	1894.68236	-689.19678	-241.84239	1102.51506	-464.62475	-236.79005	1108.35450	-661.95006	-232.93586	1105.89408	-469.80436	-220.45207	1117.86858	-649.98198	
